<svg xmlns="http://www.w3.org/2000/svg" viewBox="0 0 180 180">
  <rect width="180" height="180" rx="40" fill="#14181b"/>
  <g stroke="#232a30" stroke-width="1">
    <line x1="0" y1="45" x2="180" y2="45"/><line x1="0" y1="90" x2="180" y2="90"/><line x1="0" y1="135" x2="180" y2="135"/>
    <line x1="45" y1="0" x2="45" y2="180"/><line x1="90" y1="0" x2="90" y2="180"/><line x1="135" y1="0" x2="135" y2="180"/>
  </g>
  <path d="M28 28 h14 M28 28 v14 M152 28 h-14 M152 28 v14 M28 152 h14 M28 152 v-14 M152 152 h-14 M152 152 v-14" stroke="#9e2020" stroke-width="5" fill="none"/>
  <rect x="40" y="36" width="100" height="44" rx="3" fill="#f4f2ec"/>
  <line x1="60" y1="36" x2="60" y2="80" stroke="#14181b" stroke-width="2.5"/>
  <line x1="80" y1="36" x2="80" y2="80" stroke="#14181b" stroke-width="2.5"/>
  <line x1="100" y1="36" x2="100" y2="80" stroke="#14181b" stroke-width="2.5"/>
  <line x1="120" y1="36" x2="120" y2="80" stroke="#14181b" stroke-width="2.5"/>
  <rect x="53" y="36" width="14" height="27" fill="#14181b"/>
  <rect x="73" y="36" width="14" height="27" fill="#14181b"/>
  <rect x="113" y="36" width="14" height="27" fill="#14181b"/>
  <text x="90" y="141" font-family="'Barlow Condensed','Arial Narrow',sans-serif" font-size="62" font-weight="700" letter-spacing="3" fill="#f4f2ec" text-anchor="middle">PTL</text>
  <rect x="55" y="150" width="70" height="5" fill="#9e2020"/>
</svg>
